<svg xmlns="http://www.w3.org/2000/svg" xmlns:xlink="http://www.w3.org/1999/xlink" width="580" zoomAndPan="magnify" viewBox="0 0 434.88 101.249998" height="135" preserveAspectRatio="xMidYMid meet" version="1.0"><defs><g/></defs><g fill="#ffffff" fill-opacity="1"><g transform="translate(2.260489, 82.265621)"><g><path d="M 27.421875 -0.921875 C 30.234375 -0.921875 32.71875 -1.679688 34.875 -3.203125 C 37.039062 -4.722656 38.125 -7.015625 38.125 -10.078125 C 38.125 -13.140625 36.957031 -15.488281 34.625 -17.125 C 32.289062 -18.757812 28.972656 -20.179688 24.671875 -21.390625 C 20.367188 -22.597656 17.25 -23.648438 15.3125 -24.546875 C 13.375 -25.441406 11.53125 -26.625 9.78125 -28.09375 C 6.300781 -31.019531 4.5625 -35.546875 4.5625 -41.671875 C 4.5625 -46.679688 6.34375 -50.984375 9.90625 -54.578125 C 13.476562 -58.179688 18.359375 -59.984375 24.546875 -59.984375 C 27.523438 -59.984375 30.628906 -59.546875 33.859375 -58.671875 C 37.097656 -57.796875 39.109375 -57.359375 39.890625 -57.359375 C 40.679688 -57.359375 41.390625 -57.921875 42.015625 -59.046875 L 42.9375 -59.046875 L 43.53125 -42.015625 L 42.1875 -42.015625 C 39.476562 -46.898438 36.644531 -50.816406 33.6875 -53.765625 C 30.738281 -56.722656 27.535156 -58.203125 24.078125 -58.203125 C 20.617188 -58.203125 17.929688 -57.398438 16.015625 -55.796875 C 14.109375 -54.203125 13.15625 -52.066406 13.15625 -49.390625 C 13.15625 -46.722656 14.296875 -44.671875 16.578125 -43.234375 C 18.859375 -41.796875 21.65625 -40.628906 24.96875 -39.734375 C 28.289062 -38.835938 30.46875 -38.21875 31.5 -37.875 C 32.539062 -37.539062 33.832031 -37.078125 35.375 -36.484375 C 36.925781 -35.890625 38.191406 -35.269531 39.171875 -34.625 C 40.160156 -33.976562 41.203125 -33.160156 42.296875 -32.171875 C 43.398438 -31.191406 44.257812 -30.113281 44.875 -28.9375 C 46.394531 -26.238281 47.15625 -23.03125 47.15625 -19.3125 C 47.15625 -13.238281 45.253906 -8.359375 41.453125 -4.671875 C 37.660156 -0.992188 32.671875 0.84375 26.484375 0.84375 C 23.285156 0.84375 19.617188 0.421875 15.484375 -0.421875 C 11.347656 -1.265625 9.054688 -1.6875 8.609375 -1.6875 C 7.816406 -1.6875 7.054688 -0.84375 6.328125 0.84375 L 5.140625 0.84375 L 4.296875 -19.234375 L 5.734375 -19.234375 C 8.210938 -14.335938 11.375 -10.0625 15.21875 -6.40625 C 19.070312 -2.75 23.140625 -0.921875 27.421875 -0.921875 Z M 27.421875 -0.921875 "/></g></g></g><g fill="#ffffff" fill-opacity="1"><g transform="translate(52.869252, 82.265621)"><g><path d="M 33.75 -58.296875 C 25.03125 -58.296875 20.671875 -49.882812 20.671875 -33.0625 L 20.671875 -26.40625 C 20.671875 -18.414062 21.820312 -12.15625 24.125 -7.625 C 26.425781 -3.101562 29.828125 -0.84375 34.328125 -0.84375 C 40.515625 -0.84375 46.195312 -6.859375 51.375 -18.890625 L 52.890625 -18.890625 L 52.296875 -0.078125 L 51.375 -0.078125 C 51.039062 -0.703125 50.734375 -1.140625 50.453125 -1.390625 C 50.171875 -1.640625 49.757812 -1.765625 49.21875 -1.765625 C 48.6875 -1.765625 46.648438 -1.328125 43.109375 -0.453125 C 39.566406 0.410156 35.96875 0.84375 32.3125 0.84375 C 23.144531 0.84375 16.039062 -1.628906 11 -6.578125 C 5.96875 -11.523438 3.453125 -18.960938 3.453125 -28.890625 C 3.453125 -38.816406 6.082031 -46.476562 11.34375 -51.875 C 16.601562 -57.28125 23.675781 -59.984375 32.5625 -59.984375 C 35.988281 -59.984375 39.347656 -59.546875 42.640625 -58.671875 C 45.929688 -57.796875 47.859375 -57.359375 48.421875 -57.359375 C 48.984375 -57.359375 49.40625 -57.484375 49.6875 -57.734375 C 49.96875 -57.992188 50.273438 -58.429688 50.609375 -59.046875 L 51.546875 -59.046875 L 52.21875 -40.75 L 50.703125 -40.75 C 48.171875 -46.425781 45.566406 -50.769531 42.890625 -53.78125 C 40.222656 -56.789062 37.175781 -58.296875 33.75 -58.296875 Z M 33.75 -58.296875 "/></g></g></g><g fill="#ffffff" fill-opacity="1"><g transform="translate(111.069332, 82.265621)"><g><path d="M 1.765625 -59.046875 L 45.640625 -59.046875 L 46.484375 -42.34375 L 44.96875 -42.34375 C 42.601562 -48.03125 40.125 -51.925781 37.53125 -54.03125 C 34.945312 -56.144531 31.15625 -57.203125 26.15625 -57.203125 L 23.203125 -57.203125 L 23.203125 -31.125 L 26.0625 -31.125 C 28.707031 -31.125 30.929688 -32.125 32.734375 -34.125 C 34.535156 -36.125 35.800781 -38.8125 36.53125 -42.1875 L 37.796875 -42.1875 L 37.796875 -17.203125 L 36.359375 -17.203125 C 35.347656 -21.421875 33.984375 -24.429688 32.265625 -26.234375 C 30.546875 -28.035156 28.195312 -28.9375 25.21875 -28.9375 L 23.203125 -28.9375 L 23.203125 -1.859375 L 26.40625 -1.859375 C 31.582031 -1.859375 35.984375 -3.40625 39.609375 -6.5 C 43.234375 -9.59375 45.722656 -13.554688 47.078125 -18.390625 L 48.765625 -18.390625 L 48.078125 0 L 1.765625 0 L 1.765625 -1.859375 L 6.75 -1.859375 L 6.75 -57.203125 L 1.765625 -57.203125 Z M 1.765625 -59.046875 "/></g></g></g><g fill="#ffffff" fill-opacity="1"><g transform="translate(163.702449, 82.265621)"><g><path d="M 49.765625 -57.453125 L 49.765625 0 L 37.96875 0 L 9.03125 -54.578125 L 9.03125 -1.609375 L 13.671875 -1.609375 L 13.671875 0 L 2.109375 0 L 2.109375 -1.609375 L 6.75 -1.609375 L 6.75 -57.453125 L 2.109375 -57.453125 L 2.109375 -59.046875 L 25.390625 -59.046875 L 47.5 -16.703125 L 47.5 -57.453125 L 42.859375 -57.453125 L 42.859375 -59.046875 L 54.40625 -59.046875 L 54.40625 -57.453125 Z M 49.765625 -57.453125 "/></g></g></g><g fill="#ffffff" fill-opacity="1"><g transform="translate(220.215566, 82.265621)"><g><path d="M 36.4375 -1.609375 L 30.28125 -19.828125 L 13.578125 -19.828125 L 7.09375 -1.609375 L 13.40625 -1.609375 L 13.40625 0 L 0.5 0 L 0.5 -1.609375 L 4.46875 -1.609375 L 25.984375 -59.5625 L 32.90625 -59.5625 L 54.15625 -1.609375 L 58.046875 -1.609375 L 58.046875 0 L 30.453125 0 L 30.453125 -1.609375 Z M 22.265625 -43.78125 L 14.34375 -21.6875 L 29.609375 -21.6875 Z M 22.265625 -43.78125 "/></g></g></g><g fill="#ffffff" fill-opacity="1"><g transform="translate(278.753036, 82.265621)"><g><path d="M 27.671875 -29.859375 L 23.203125 -29.859375 L 23.203125 -1.609375 L 28.6875 -1.609375 L 28.6875 0 L 1.265625 0 L 1.265625 -1.609375 L 6.75 -1.609375 L 6.75 -57.453125 L 1.265625 -57.453125 L 1.265625 -59.046875 L 26.734375 -59.046875 C 34.046875 -59.046875 39.234375 -58.664062 42.296875 -57.90625 C 45.367188 -57.15625 47.523438 -56.242188 48.765625 -55.171875 C 51.460938 -52.972656 52.8125 -49.484375 52.8125 -44.703125 C 52.8125 -39.929688 51.628906 -36.515625 49.265625 -34.453125 C 46.898438 -32.398438 43.300781 -31.179688 38.46875 -30.796875 L 38.46875 -30.53125 C 43.019531 -29.914062 46.195312 -28.566406 48 -26.484375 C 49.800781 -24.410156 50.703125 -20.925781 50.703125 -16.03125 L 50.703125 -11.5625 C 50.703125 -8.632812 50.851562 -6.664062 51.15625 -5.65625 C 51.46875 -4.644531 52.128906 -4.140625 53.140625 -4.140625 C 54.160156 -4.140625 54.960938 -4.601562 55.546875 -5.53125 C 56.140625 -6.457031 56.691406 -8.410156 57.203125 -11.390625 L 58.625 -11.21875 C 58.007812 -6.4375 56.925781 -3.226562 55.375 -1.59375 C 53.832031 0.03125 50.753906 0.84375 46.140625 0.84375 C 41.535156 0.84375 38.257812 -0.238281 36.3125 -2.40625 C 34.375 -4.570312 33.40625 -8.632812 33.40625 -14.59375 L 33.40625 -20.75 C 33.40625 -23.894531 32.992188 -26.195312 32.171875 -27.65625 C 31.359375 -29.125 29.859375 -29.859375 27.671875 -29.859375 Z M 23.203125 -57.453125 L 23.203125 -31.46875 L 25.890625 -31.46875 C 29.097656 -31.46875 31.472656 -32.453125 33.015625 -34.421875 C 34.566406 -36.390625 35.34375 -39.59375 35.34375 -44.03125 L 35.34375 -46.484375 C 35.34375 -50.921875 34.597656 -53.859375 33.109375 -55.296875 C 31.617188 -56.734375 29.242188 -57.453125 25.984375 -57.453125 Z M 23.203125 -57.453125 "/></g></g></g><g fill="#ffffff" fill-opacity="1"><g transform="translate(339.146153, 82.265621)"><g><path d="M 2.109375 -59.046875 L 27.84375 -59.046875 L 27.84375 -57.453125 L 23.203125 -57.453125 L 23.203125 -1.609375 L 27.84375 -1.609375 L 27.84375 0 L 2.109375 0 L 2.109375 -1.609375 L 6.75 -1.609375 L 6.75 -57.453125 L 2.109375 -57.453125 Z M 2.109375 -59.046875 "/></g></g></g><g fill="#ffffff" fill-opacity="1"><g transform="translate(369.089668, 82.265621)"><g><path d="M 42.265625 -26.0625 L 42.265625 -32.3125 C 42.265625 -42.601562 41.757812 -49.097656 40.75 -51.796875 C 39.625 -54.890625 38.019531 -56.800781 35.9375 -57.53125 C 34.757812 -57.976562 33.328125 -58.203125 31.640625 -58.203125 C 29.953125 -58.203125 28.5 -57.976562 27.28125 -57.53125 C 26.070312 -57.082031 25.070312 -56.296875 24.28125 -55.171875 C 23.5 -54.046875 22.867188 -52.863281 22.390625 -51.625 C 21.921875 -50.382812 21.546875 -48.640625 21.265625 -46.390625 C 20.921875 -43.128906 20.75 -38.320312 20.75 -31.96875 L 20.75 -25.890625 C 20.75 -19.035156 21.015625 -14.160156 21.546875 -11.265625 C 22.085938 -8.367188 22.75 -6.300781 23.53125 -5.0625 C 25.28125 -2.300781 27.984375 -0.921875 31.640625 -0.921875 C 36.078125 -0.921875 38.957031 -2.789062 40.28125 -6.53125 C 41.601562 -10.269531 42.265625 -16.78125 42.265625 -26.0625 Z M 31.453125 0.84375 C 22.066406 0.84375 15.050781 -1.695312 10.40625 -6.78125 C 5.769531 -11.875 3.453125 -19.242188 3.453125 -28.890625 C 3.453125 -38.535156 5.941406 -46.128906 10.921875 -51.671875 C 15.898438 -57.210938 22.941406 -59.984375 32.046875 -59.984375 C 41.160156 -59.984375 48.035156 -57.351562 52.671875 -52.09375 C 57.316406 -46.832031 59.640625 -39.363281 59.640625 -29.6875 C 59.640625 -20.019531 57.289062 -12.515625 52.59375 -7.171875 C 47.894531 -1.828125 40.847656 0.84375 31.453125 0.84375 Z M 31.453125 0.84375 "/></g></g></g></svg>