<svg xmlns="http://www.w3.org/2000/svg" xmlns:xlink="http://www.w3.org/1999/xlink" width="500" zoomAndPan="magnify" viewBox="0 0 375 374.999991" height="500" preserveAspectRatio="xMidYMid meet" version="1.0"><defs><g/></defs><g fill="#000000" fill-opacity="1"><g transform="translate(72.891832, 326.468837)"><g><path d="M 124.140625 -4.203125 C 136.878906 -4.203125 148.148438 -7.640625 157.953125 -14.515625 C 167.753906 -21.390625 172.65625 -31.765625 172.65625 -45.640625 C 172.65625 -59.523438 167.367188 -70.160156 156.796875 -77.546875 C 146.234375 -84.929688 131.210938 -91.359375 111.734375 -96.828125 C 92.253906 -102.304688 78.117188 -107.082031 69.328125 -111.15625 C 60.546875 -115.226562 52.207031 -120.578125 44.3125 -127.203125 C 28.519531 -140.441406 20.625 -160.941406 20.625 -188.703125 C 20.625 -211.367188 28.707031 -230.847656 44.875 -247.140625 C 61.050781 -263.441406 83.144531 -271.59375 111.15625 -271.59375 C 124.65625 -271.59375 138.722656 -269.617188 153.359375 -265.671875 C 168.003906 -261.722656 177.109375 -259.75 180.671875 -259.75 C 184.242188 -259.75 187.429688 -262.296875 190.234375 -267.390625 L 194.4375 -267.390625 L 197.109375 -190.234375 L 191 -190.234375 C 178.769531 -212.378906 165.96875 -230.132812 152.59375 -243.5 C 139.226562 -256.875 124.710938 -263.5625 109.046875 -263.5625 C 93.390625 -263.5625 81.234375 -259.929688 72.578125 -252.671875 C 63.921875 -245.421875 59.59375 -235.742188 59.59375 -223.640625 C 59.59375 -211.546875 64.75 -202.253906 75.0625 -195.765625 C 85.375 -189.273438 98.039062 -183.988281 113.0625 -179.90625 C 128.09375 -175.832031 137.960938 -173.03125 142.671875 -171.5 C 147.378906 -169.976562 153.234375 -167.878906 160.234375 -165.203125 C 167.242188 -162.535156 172.972656 -159.734375 177.421875 -156.796875 C 181.878906 -153.867188 186.59375 -150.175781 191.5625 -145.71875 C 196.53125 -141.269531 200.414062 -136.367188 203.21875 -131.015625 C 210.09375 -118.796875 213.53125 -104.28125 213.53125 -87.46875 C 213.53125 -59.96875 204.9375 -37.878906 187.75 -21.203125 C 170.5625 -4.523438 147.957031 3.8125 119.9375 3.8125 C 105.425781 3.8125 88.8125 1.90625 70.09375 -1.90625 C 51.375 -5.726562 41 -7.640625 38.96875 -7.640625 C 35.394531 -7.640625 31.957031 -3.820312 28.65625 3.8125 L 23.296875 3.8125 L 19.484375 -87.09375 L 25.96875 -87.09375 C 37.175781 -64.9375 51.5 -45.582031 68.9375 -29.03125 C 86.382812 -12.476562 104.785156 -4.203125 124.140625 -4.203125 Z M 124.140625 -4.203125 "/></g></g></g></svg>